<?xml version="1.0" encoding="UTF-8" standalone="no"?>
<!-- Created with Inkscape (http://www.inkscape.org/) -->

<svg
   version="1.1"
   id="svg2"
   width="322.66666"
   height="322.66666"
   viewBox="0 0 322.66666 322.66666"
   sodipodi:docname="icon logo AI file.ai"
   xmlns:inkscape="http://www.inkscape.org/namespaces/inkscape"
   xmlns:sodipodi="http://sodipodi.sourceforge.net/DTD/sodipodi-0.dtd"
   xmlns="http://www.w3.org/2000/svg"
   xmlns:svg="http://www.w3.org/2000/svg">
  <defs
     id="defs6">
    <linearGradient
       x1="0"
       y1="0"
       x2="1"
       y2="0"
       gradientUnits="userSpaceOnUse"
       gradientTransform="matrix(66.009987,113.72,113.72,-66.009987,84.580078,58.978516)"
       spreadMethod="pad"
       id="linearGradient30">
      <stop
         style="stop-opacity:1;stop-color:#e30000"
         offset="0"
         id="stop24" />
      <stop
         style="stop-opacity:1;stop-color:#f1c40f"
         offset="0.99809364"
         id="stop26" />
      <stop
         style="stop-opacity:1;stop-color:#f1c40f"
         offset="1"
         id="stop28" />
    </linearGradient>
  </defs>
  <sodipodi:namedview
     id="namedview4"
     pagecolor="#ffffff"
     bordercolor="#000000"
     borderopacity="0.25"
     inkscape:showpageshadow="2"
     inkscape:pageopacity="0.0"
     inkscape:pagecheckerboard="0"
     inkscape:deskcolor="#d1d1d1" />
  <g
     id="g8"
     inkscape:groupmode="layer"
     inkscape:label="icon logo AI file"
     transform="matrix(1.3333333,0,0,-1.3333333,0,322.66667)">
    <path
       d="M 0,0 H 240 V 240 H 0 Z"
       style="fill:#ffffff;fill-opacity:1;fill-rule:nonzero;stroke:none"
       id="path10" />
    <g
       id="g12">
      <g
         id="g14">
        <g
           id="g20">
          <g
             id="g22">
            <path
               d="m 120,199.831 -0.016,-0.005 -0.138,-0.002 h -0.031 l -0.092,-0.003 v 0.003 h -0.001 l -0.077,-0.005 -0.059,-0.004 v 0.001 h -0.002 -0.014 l -0.044,-0.004 -0.016,-0.001 v -0.001 l -0.048,-0.005 -0.027,-0.002 h -0.02 l -0.099,-0.01 -0.035,-0.005 h -0.062 l -0.099,-0.015 -0.136,-0.02 -0.01,-0.005 -0.134,-0.022 -0.035,-0.004 h -0.025 l -0.143,-0.031 -0.13,-0.029 -0.005,-0.001 h -0.022 l -0.126,-0.035 h -0.008 l -0.19,-0.056 -0.073,-0.021 h -0.034 l -0.124,-0.045 h -0.019 l -0.121,-0.047 h -0.018 l -0.121,-0.049 h -0.002 l -0.048,-0.022 -0.033,-0.014 -0.005,-0.001 -0.037,-0.016 h -0.03 l -0.239,-0.114 h -0.024 l -0.115,-0.06 h -0.022 l -0.305,-0.173 -0.044,-0.025 H 116.7 l -0.107,-0.074 h -0.006 l -0.332,-0.225 -0.004,-0.002 h -0.041 l -0.1,-0.082 h -0.023 l -0.098,-0.084 h -0.015 l -0.095,-0.085 h -0.025 l -0.092,-0.089 h -0.009 l -0.092,-0.09 h -0.022 l -0.088,-0.091 h -0.036 l -0.086,-0.097 h -0.013 l -0.084,-0.096 h -0.01 l -0.083,-0.099 h -0.016 l -0.082,-0.1 h -0.032 l -0.078,-0.103 h -0.028 l -0.074,-0.105 h -0.026 l -0.07,-0.107 h -0.002 l -0.072,-0.108 h -0.031 l -0.137,-0.224 h -0.025 l -0.064,-0.113 h -0.038 l -0.119,-0.232 h -0.037 l -0.055,-0.118 h -0.018 l -0.16,-0.365 h -0.065 l -0.043,-0.125 h -0.027 l -0.04,-0.125 h -0.027 l -0.037,-0.128 h -0.03 l -0.068,-0.26 h -0.066 l -0.026,-0.131 h -0.011 l -0.024,-0.132 h -0.031 l -0.021,-0.133 h -0.03 l -0.018,-0.134 h -0.039 l -0.014,-0.135 h -0.033 l -0.011,-0.137 h -0.017 l -0.008,-0.136 h -0.038 l -0.004,-0.14 h -0.019 l -0.02,-1.291 -0.002,-0.14 -0.005,-0.014 v -0.1 -1.307 h 0.021 l 10e-4,-0.099 h 0.034 l 0.003,-0.098 h 0.015 l 0.004,-0.098 h 0.044 l 0.017,-0.195 h 0.025 l 0.01,-0.097 h 0.021 l 0.012,-0.098 h 0.077 l 0.072,-0.379 h 0.078 l 0.101,-0.37 h 0.022 l 0.055,-0.181 h 0.062 l 0.096,-0.265 h 0.065 l 0.156,-0.345 h 0.034 l 0.083,-0.167 h 0.015 l 0.043,-0.083 h 0.038 l 0.091,-0.161 h 0.033 l 0.147,-0.237 h 0.04 l 0.104,-0.154 h 0.06 l 0.261,-0.307 v -0.022 l 0.394,-0.318 0.339,-0.308 h 0.051 l 0.059,-0.045 v -0.062 l 0.246,-0.133 v -37.29 -5.733 -2.045 -1.967 -4.718 -9.341 -24.422 -6.691 -1.828 -51.994 -1.307 h 7.337 v 1.307 53.285 l 13.683,13.639 0.387,0.386 v 0.538 6.736 28.607 c 0.812,0.533 1.501,1.238 2.016,2.062 v 0 c 0.643,1.029 1.016,2.244 1.016,3.543 v 0 c 0,1.85 -0.751,3.525 -1.962,4.737 v 0 c -1.211,1.211 -2.887,1.962 -4.737,1.962 v 0 c -1.846,0 -3.52,-0.751 -4.731,-1.962 v 0 h -0.006 c -1.211,-1.212 -1.962,-2.887 -1.962,-4.737 v 0 c 0,-1.297 0.372,-2.513 1.016,-3.541 v 0 c 0.514,-0.821 1.203,-1.525 2.015,-2.058 v 0 -11.584 -6.678 -14.532 l -6.735,-6.735 v 30.608 4.718 1.967 2.045 5.733 37.289 l 0.015,0.007 h 0.007 l 0.012,0.01 0.215,0.117 v 0.056 l 0.13,0.104 0.072,0.057 -10e-4,10e-4 0.06,0.046 0.025,0.021 0.071,0.057 0.437,0.356 h 0.017 l 0.117,0.142 h 0.028 l 0.286,0.376 h 0.064 l 0.148,0.237 h 0.041 l 0.045,0.08 h 0.006 l 0.045,0.081 h 0.025 l 0.043,0.083 h 0.015 l 0.082,0.167 h 0.008 l 0.168,0.345 h 0.067 l 0.171,0.446 h 0.087 l 0.049,0.185 h 0.032 l 0.044,0.185 h 0.047 l 0.054,0.285 h 0.042 l 0.03,0.192 h 0.054 l 0.029,0.292 h 0.066 l 0.005,0.098 h 0.027 l 0.002,0.098 h 0.023 l 0.013,1.296 0.001,0.099 0.007,0.011 v 0.1 0.139 1.306 h -0.08 l -0.017,0.276 h -0.02 l -0.012,0.137 h -0.028 l -0.014,0.135 h -0.065 l -0.043,0.267 h -0.079 l -0.097,0.395 h -0.008 l -0.032,0.128 h -0.064 l -0.08,0.253 h -0.027 l -0.043,0.125 h -0.026 l -0.046,0.121 h -0.011 l -0.05,0.123 h -0.03 l -0.052,0.121 h -0.028 l -0.055,0.118 h -0.024 l -0.058,0.117 h -0.045 l -0.13,0.228 h -0.009 l -0.065,0.113 h -0.046 l -0.145,0.219 h -0.014 l -0.072,0.107 h -0.013 l -0.073,0.105 h -0.029 l -0.078,0.103 h -0.03 l -0.083,0.1 h -0.016 l -0.083,0.099 h -0.014 l -0.084,0.096 h -0.016 l -0.089,0.097 h -0.027 l -0.088,0.091 h -0.021 l -0.092,0.09 h -0.035 l -0.198,0.174 h -0.021 l -0.204,0.166 h -0.025 l -0.101,0.078 h -0.006 l -0.102,0.077 h -0.042 l -0.106,0.072 h -10e-4 l -0.107,0.074 h -0.023 l -0.111,0.069 h -0.025 l -0.112,0.065 h -0.02 l -0.236,0.124 h -0.021 l -0.115,0.059 h -0.008 l -0.116,0.055 h -0.032 l -0.118,0.053 h -0.022 l -0.026,0.009 -0.229,0.087 h -0.031 l -0.057,0.018 -0.024,0.007 0.001,0.003 -0.126,0.038 -0.034,0.01 -0.025,0.009 h -0.001 l -0.127,0.037 h -0.015 l -0.126,0.035 h -0.027 l -10e-4,0.001 -0.024,0.006 -0.104,0.026 h -0.014 l -0.132,0.028 h -0.02 l -0.132,0.025 h -0.034 l -0.005,10e-4 -0.013,0.002 0.001,0.003 -0.134,0.02 -0.101,0.015 h -0.06 l -0.035,0.005 -0.1,0.01 h -0.02 l -0.028,0.002 -0.047,0.005 v 0.001 l -0.019,0.001 -0.042,0.004 h -0.014 -0.001 v -0.001 l -0.06,0.004 -0.075,0.005 h -0.002 v -0.003 l -0.093,0.003 -0.046,0.006 h -0.001 v -0.006 l -0.121,0.002 -0.015,0.005 z m -2.699,-6.705 c 0,1.388 1.125,2.514 2.514,2.514 v 0 c 1.389,0 2.515,-1.126 2.515,-2.514 v 0 c 0,-1.388 -1.126,-2.514 -2.515,-2.514 v 0 c -1.389,0 -2.514,1.126 -2.514,2.514 m 14.256,-42.854 c 0,1.388 1.125,2.514 2.513,2.514 v 0 c 1.389,0 2.515,-1.126 2.515,-2.514 v 0 c 0,-1.389 -1.126,-2.515 -2.515,-2.515 v 0 c -1.388,0 -2.513,1.126 -2.513,2.515 m -30.366,27.112 v -0.006 c -1.212,-1.211 -1.962,-2.886 -1.962,-4.732 v 0 c 0,-1.299 0.372,-2.514 1.016,-3.542 v 0 c 0.516,-0.826 1.207,-1.531 2.017,-2.063 v 0 -50.982 -6.736 -0.538 l 0.388,-0.386 4.723,-4.708 2.225,-2.22 v 3.143 6.722 15.074 6.678 33.955 c 0.81,0.532 1.5,1.237 2.015,2.062 v 0 c 0.643,1.027 1.016,2.243 1.016,3.541 v 0 c 0,1.845 -0.753,3.521 -1.966,4.735 v 0 l 0.003,0.003 c -1.212,1.212 -2.888,1.963 -4.739,1.963 v 0 c -1.848,0 -3.524,-0.751 -4.736,-1.963 m 2.223,-4.735 c 0,1.388 1.126,2.513 2.513,2.513 v 0 c 1.389,0 2.516,-1.125 2.516,-2.513 v 0 c 0,-1.389 -1.127,-2.515 -2.516,-2.515 v 0 c -1.387,0 -2.513,1.126 -2.513,2.515 m 39.994,-1.915 h -0.006 c -1.211,-1.211 -1.962,-2.887 -1.962,-4.735 v 0 c 0,-1.293 0.375,-2.507 1.021,-3.541 v 0 l -0.004,-0.003 c 0.516,-0.824 1.206,-1.53 2.016,-2.062 v 0 -53.694 L 130.805,93.59 130.402,93.202 V 92.65 43.087 40.87 l 1.939,1.079 18.795,10.443 0.673,0.373 v 0.765 30.417 l 13.687,13.69 0.383,0.383 v 0.541 38.487 c 0.81,0.531 1.5,1.236 2.014,2.06 v 0 c 0.644,1.029 1.016,2.244 1.016,3.542 v 0 c 0,1.85 -0.749,3.526 -1.961,4.738 v 0 l -0.003,-0.004 c -1.215,1.215 -2.888,1.965 -4.733,1.965 v 0 c -1.851,0 -3.527,-0.749 -4.738,-1.961 v 0 c -1.212,-1.212 -1.961,-2.888 -1.961,-4.738 v 0 c 0,-1.298 0.371,-2.512 1.015,-3.542 v 0 c 0.515,-0.823 1.204,-1.528 2.014,-2.06 v 0 -35.991 L 144.857,87.369 144.473,86.986 V 86.445 56.894 l -6.736,-3.275 v 36.493 l 13.669,13.11 0.403,0.385 v 0.554 56.234 c 0.81,0.532 1.501,1.236 2.016,2.061 v 0 c 0.642,1.029 1.015,2.244 1.015,3.543 v 0 c 0,1.846 -0.752,3.521 -1.968,4.735 v 0 c -1.212,1.212 -2.887,1.963 -4.732,1.963 v 0 c -1.845,0 -3.52,-0.751 -4.732,-1.963 m 2.217,-4.735 c 0,1.388 1.126,2.513 2.515,2.513 v 0 c 1.387,0 2.514,-1.125 2.514,-2.513 v 0 c 0,-1.389 -1.127,-2.515 -2.514,-2.515 v 0 c -1.389,0 -2.515,1.126 -2.515,2.515 m 14.072,-23.348 c 0,1.389 1.126,2.514 2.515,2.514 v 0 c 1.388,0 2.513,-1.125 2.513,-2.514 v 0 c 0,-1.389 -1.125,-2.515 -2.513,-2.515 v 0 c -1.389,0 -2.515,1.126 -2.515,2.515 m -72.456,18.718 h -0.006 c -1.277,-1.277 -2.076,-3.022 -2.076,-4.693 v 0 c 0,-1.557 0.394,-2.793 1.073,-3.789 v 0 c 0.517,-0.759 1.185,-1.355 1.958,-1.831 v 0 -46.895 -0.554 l 0.403,-0.385 13.669,-13.11 V 53.619 l -6.736,3.275 v 29.551 0.541 l -0.382,0.383 -13.688,13.688 v 35.991 c 0.81,0.532 1.5,1.237 2.015,2.06 v 0 c 0.644,1.029 1.016,2.244 1.016,3.542 v 0 c 0,1.85 -0.75,3.526 -1.962,4.738 v 0 c -1.212,1.212 -2.887,1.961 -4.737,1.961 v 0 c -1.844,0 -3.518,-0.75 -4.733,-1.965 v 0 l -0.003,0.004 C 71.841,146.176 71.09,144.5 71.09,142.65 v 0 c 0,-1.298 0.373,-2.513 1.015,-3.542 v 0 c 0.516,-0.824 1.205,-1.529 2.015,-2.06 v 0 V 98.561 98.02 L 74.503,97.637 88.19,83.947 V 53.53 52.765 l 0.674,-0.373 18.794,-10.443 1.94,-1.079 v 2.217 49.563 0.552 l -0.403,0.388 -13.669,13.109 v 44.356 c 0.775,0.476 1.444,1.072 1.96,1.832 v 0 c 0.679,0.996 1.073,2.232 1.073,3.789 v 0 c 0,1.671 -0.798,3.416 -2.075,4.693 v 0 h -0.006 c -1.193,1.193 -2.818,2.005 -4.618,2.005 v 0 c -1.801,0 -3.426,-0.812 -4.619,-2.005 m 2.106,-4.693 c 0,1.388 1.126,2.514 2.514,2.514 v 0 c 1.389,0 2.515,-1.126 2.515,-2.514 v 0 c 0,-1.388 -1.126,-2.514 -2.515,-2.514 v 0 c -1.388,0 -2.514,1.126 -2.514,2.514 M 75.274,142.651 c 0,1.389 1.126,2.514 2.514,2.514 v 0 c 1.389,0 2.515,-1.125 2.515,-2.514 v 0 c 0,-1.389 -1.126,-2.515 -2.515,-2.515 v 0 c -1.388,0 -2.514,1.126 -2.514,2.515 m 95.131,-23.046 -0.003,0.002 c -1.212,-1.211 -1.962,-2.887 -1.962,-4.737 v 0 c 0,-1.297 0.372,-2.511 1.015,-3.541 v 0 c 0.513,-0.82 1.202,-1.524 2.014,-2.056 v 0 -14.68 L 157.783,80.906 157.4,80.521 V 79.98 61.985 58.495 l 2.291,2.632 4.724,5.424 0.321,0.368 v 0.489 10.078 l 13.688,13.687 0.383,0.383 v 0.542 17.167 c 0.81,0.533 1.499,1.237 2.016,2.062 v 0 c 0.642,1.029 1.015,2.245 1.015,3.543 v 0 c 0,1.85 -0.75,3.526 -1.962,4.737 v 0 l -0.003,-0.002 c -1.215,1.214 -2.891,1.965 -4.734,1.965 v 0 c -1.844,0 -3.519,-0.75 -4.734,-1.965 m 2.219,-4.733 c 0,1.389 1.127,2.515 2.515,2.515 v 0 c 1.388,0 2.515,-1.126 2.515,-2.515 v 0 c 0,-1.388 -1.127,-2.514 -2.515,-2.514 v 0 c -1.388,0 -2.515,1.126 -2.515,2.514 m -112.5,4.736 v -0.005 c -1.212,-1.212 -1.962,-2.886 -1.962,-4.733 v 0 c 0,-1.298 0.372,-2.515 1.016,-3.543 v 0 c 0.515,-0.825 1.206,-1.53 2.016,-2.062 v 0 -17.167 -0.542 L 61.576,91.173 75.263,77.486 V 67.408 66.919 l 0.322,-0.368 4.723,-5.424 2.291,-2.632 v 3.49 17.995 0.541 l -0.382,0.385 -13.686,13.687 v 14.68 c 0.812,0.532 1.501,1.236 2.014,2.056 v 0 c 0.642,1.03 1.015,2.244 1.015,3.541 v 0 c 0,1.85 -0.751,3.526 -1.963,4.737 v 0 l -0.003,-0.002 c -1.214,1.214 -2.89,1.965 -4.733,1.965 v 0 c -1.85,0 -3.526,-0.75 -4.737,-1.962 m 2.223,-4.74 c 0,1.389 1.126,2.515 2.514,2.515 v 0 c 1.389,0 2.514,-1.126 2.514,-2.515 v 0 c 0,-1.389 -1.125,-2.515 -2.514,-2.515 v 0 c -1.388,0 -2.514,1.126 -2.514,2.515"
               style="fill:url(#linearGradient30);stroke:none"
               id="path32" />
          </g>
        </g>
      </g>
    </g>
  </g>
</svg>
