<svg width="172" height="172" viewBox="0 0 172 172" fill="none" xmlns="http://www.w3.org/2000/svg">
<mask id="mask0_111_7" style="mask-type:alpha" maskUnits="userSpaceOnUse" x="8" y="23" width="156" height="126">
<path d="M28.9466 131.574C17.7476 131.574 8.66895 122.496 8.66895 111.297C8.66895 102.584 14.3827 95.2367 21.9788 92.3453C27.9246 90.0821 34.4917 87.5387 37.502 81.934C40.5474 76.264 39.1701 69.3828 36.6979 63.4405C29.0945 45.1649 41.1569 24.0301 63.1402 23.8247C83.6105 23.6334 95.5994 41.2397 91.5687 58.7416C89.7002 66.8547 87.2569 75.9571 91.8681 83.6636C94.8851 88.6547 100.11 92.6096 107.075 92.6096C120.594 92.6096 127.379 79.6371 123.594 66.7071C119.897 54.0744 129.704 40.7227 143.058 40.7227C154.257 40.7227 163.336 49.8013 163.336 61.0004C163.336 69.7134 157.622 77.0605 150.026 79.9519C144.08 82.2151 137.513 84.7585 134.503 90.3632C131.457 96.0332 132.834 102.914 135.307 108.857C142.91 127.132 130.25 148.473 108.864 148.473C87.4789 148.473 76.4051 131.058 80.4359 113.556C82.1749 106.005 84.4627 97.6764 81.0215 90.224C78.2036 84.5095 72.6204 79.6876 64.9294 79.6876C51.411 79.6876 44.6253 92.6601 48.4101 105.59C52.1079 118.223 42.3006 131.574 28.9466 131.574Z" fill="url(#paint0_radial_111_7)"/>
</mask>
<g mask="url(#mask0_111_7)">
<path d="M28.9466 131.574C17.7476 131.574 8.66895 122.496 8.66895 111.297C8.66895 102.584 14.3827 95.2367 21.9788 92.3453C27.9246 90.0821 34.4917 87.5387 37.502 81.934C40.5474 76.264 39.1701 69.3828 36.6979 63.4405C29.0945 45.1649 41.1569 24.0301 63.1402 23.8247C83.6105 23.6334 95.5994 41.2397 91.5687 58.7416C89.7002 66.8547 87.2569 75.9571 91.8681 83.6636C94.8851 88.6547 100.11 92.6096 107.075 92.6096C120.594 92.6096 127.379 79.6371 123.594 66.7071C119.897 54.0744 129.704 40.7227 143.058 40.7227C154.257 40.7227 163.336 49.8013 163.336 61.0004C163.336 69.7134 157.622 77.0605 150.026 79.9519C144.08 82.2151 137.513 84.7585 134.503 90.3632C131.457 96.0332 132.834 102.914 135.307 108.857C142.91 127.132 130.25 148.473 108.864 148.473C87.4789 148.473 76.4051 131.058 80.4359 113.556C82.1749 106.005 84.4627 97.6764 81.0215 90.224C78.2036 84.5095 72.6204 79.6876 64.9294 79.6876C51.411 79.6876 44.6253 92.6601 48.4101 105.59C52.1079 118.223 42.3006 131.574 28.9466 131.574Z" fill="url(#paint1_radial_111_7)"/>
<g style="mix-blend-mode:plus-darker" opacity="0.3" filter="url(#filter0_f_111_7)">
<path fill-rule="evenodd" clip-rule="evenodd" d="M78.4745 50.884C78.4745 51.4506 78.4416 52.0095 78.3777 52.559C77.7414 58.0258 76.6026 64.2295 79.7256 68.7613L103.163 102.772C104.425 104.603 106.708 105.35 108.931 105.35V105.35V105.35C111.385 105.35 113.926 104.438 115.131 102.301L131.693 72.9328C133.568 69.6082 132.942 65.4507 132.942 61.6338V61.6338C132.942 55.8947 137.595 51.2422 143.334 51.2422C149.073 51.2422 153.725 55.8947 153.725 61.6338C153.725 67.373 149.073 72.0255 143.334 72.0255V72.0255C143.001 72.0255 142.688 72.1946 142.525 72.484L124.187 105.001C121.999 108.88 122.694 113.678 123.179 118.105C123.235 118.624 123.265 119.15 123.265 119.684C123.265 127.6 116.847 134.017 108.931 134.017C101.015 134.017 94.5977 127.6 94.5977 119.684C94.5977 119.33 94.6105 118.979 94.6357 118.632C94.9966 113.655 95.6657 108.132 92.8343 104.023L67.0727 66.6395C66.42 65.6924 65.2913 65.2174 64.1411 65.2174V65.2174V65.2174C61.8485 65.2174 59.4938 66.0986 58.3715 68.0977L39.0822 102.457C37.7072 104.906 37.984 107.917 37.984 110.726V110.726C37.984 115.673 33.9733 119.684 29.0257 119.684C24.0782 119.684 20.0674 115.673 20.0674 110.726C20.0674 108.143 21.1605 105.815 22.9094 104.18C25.8973 101.387 30.1339 99.5726 32.1362 96.006L49.0022 65.9634C51.2225 62.0085 50.452 57.1156 49.9108 52.6124C49.8427 52.0458 49.8076 51.469 49.8076 50.884C49.8076 42.9678 56.2249 36.5505 64.1411 36.5505C72.0572 36.5505 78.4745 42.9678 78.4745 50.884Z" fill="url(#paint2_radial_111_7)"/>
</g>
<g filter="url(#filter1_f_111_7)">
<path d="M28.9466 131.574C17.7476 131.574 8.66895 122.496 8.66895 111.297C8.66895 102.584 14.3827 95.2367 21.9788 92.3453C27.9246 90.0821 34.4917 87.5387 37.502 81.934C40.5474 76.264 39.1701 69.3828 36.6979 63.4405C29.0945 45.1649 41.1569 24.0301 63.1402 23.8247C83.6105 23.6334 95.5994 41.2397 91.5687 58.7416C89.7002 66.8547 87.2569 75.9571 91.8681 83.6636C94.8851 88.6547 100.11 92.6096 107.075 92.6096C120.594 92.6096 127.379 79.6371 123.594 66.7071C119.897 54.0744 129.704 40.7227 143.058 40.7227C154.257 40.7227 163.336 49.8013 163.336 61.0004C163.336 69.7134 157.622 77.0605 150.026 79.9519C144.08 82.2151 137.513 84.7585 134.503 90.3632C131.457 96.0332 132.834 102.914 135.307 108.857C142.91 127.132 130.25 148.473 108.864 148.473C87.4789 148.473 76.4051 131.058 80.4359 113.556C82.1749 106.005 84.4627 97.6764 81.0215 90.224C78.2036 84.5095 72.6204 79.6876 64.9294 79.6876C51.411 79.6876 44.6253 92.6601 48.4101 105.59C52.1079 118.223 42.3006 131.574 28.9466 131.574Z" stroke="white" stroke-opacity="0.9" stroke-width="3.07156"/>
</g>
<g filter="url(#filter2_f_111_7)">
<path d="M28.9466 131.574C17.7476 131.574 8.66895 122.496 8.66895 111.297C8.66895 102.584 14.3827 95.2367 21.9788 92.3453C27.9246 90.0821 34.4917 87.5387 37.502 81.934C40.5474 76.264 39.1701 69.3828 36.6979 63.4405C29.0945 45.1649 41.1569 24.0301 63.1402 23.8247C83.6105 23.6334 95.5994 41.2397 91.5687 58.7416C89.7002 66.8547 87.2569 75.9571 91.8681 83.6636C94.8851 88.6547 100.11 92.6096 107.075 92.6096C120.594 92.6096 127.379 79.6371 123.594 66.7071C119.897 54.0744 129.704 40.7227 143.058 40.7227C154.257 40.7227 163.336 49.8013 163.336 61.0004C163.336 69.7134 157.622 77.0605 150.026 79.9519C144.08 82.2151 137.513 84.7585 134.503 90.3632C131.457 96.0332 132.834 102.914 135.307 108.857C142.91 127.132 130.25 148.473 108.864 148.473C87.4789 148.473 76.4051 131.058 80.4359 113.556C82.1749 106.005 84.4627 97.6764 81.0215 90.224C78.2036 84.5095 72.6204 79.6876 64.9294 79.6876C51.411 79.6876 44.6253 92.6601 48.4101 105.59C52.1079 118.223 42.3006 131.574 28.9466 131.574Z" stroke="white" stroke-opacity="0.3" stroke-width="2.30367"/>
</g>
</g>
<defs>
<filter id="filter0_f_111_7" x="8.60072" y="25.0839" width="156.592" height="120.4" filterUnits="userSpaceOnUse" color-interpolation-filters="sRGB">
<feFlood flood-opacity="0" result="BackgroundImageFix"/>
<feBlend mode="normal" in="SourceGraphic" in2="BackgroundImageFix" result="shape"/>
<feGaussianBlur stdDeviation="5.73333" result="effect1_foregroundBlur_111_7"/>
</filter>
<filter id="filter1_f_111_7" x="-2.08187" y="13.0727" width="176.168" height="146.15" filterUnits="userSpaceOnUse" color-interpolation-filters="sRGB">
<feFlood flood-opacity="0" result="BackgroundImageFix"/>
<feBlend mode="normal" in="SourceGraphic" in2="BackgroundImageFix" result="shape"/>
<feGaussianBlur stdDeviation="4.60734" result="effect1_foregroundBlur_111_7"/>
</filter>
<filter id="filter2_f_111_7" x="5.21391" y="20.3677" width="161.577" height="131.56" filterUnits="userSpaceOnUse" color-interpolation-filters="sRGB">
<feFlood flood-opacity="0" result="BackgroundImageFix"/>
<feBlend mode="normal" in="SourceGraphic" in2="BackgroundImageFix" result="shape"/>
<feGaussianBlur stdDeviation="1.15184" result="effect1_foregroundBlur_111_7"/>
</filter>
<radialGradient id="paint0_radial_111_7" cx="0" cy="0" r="1" gradientUnits="userSpaceOnUse" gradientTransform="translate(183.469 47.8373) rotate(165.41) scale(197.726 191.875)">
<stop stop-color="#F92F5F"/>
<stop offset="0.33465" stop-color="#FD6814"/>
<stop offset="0.693737" stop-color="#FFEC46"/>
<stop offset="1" stop-color="#FFFDE8"/>
</radialGradient>
<radialGradient id="paint1_radial_111_7" cx="0" cy="0" r="1" gradientUnits="userSpaceOnUse" gradientTransform="translate(163.562 80.6284) rotate(175.049) scale(155.695 203.208)">
<stop offset="0.0524358" stop-color="#F8E641"/>
<stop offset="0.343599" stop-color="#FFA011"/>
<stop offset="0.585079" stop-color="#F72F3B"/>
<stop offset="0.797656" stop-color="#8D1EB4"/>
<stop offset="1" stop-color="#2467B6"/>
</radialGradient>
<radialGradient id="paint2_radial_111_7" cx="0" cy="0" r="1" gradientUnits="userSpaceOnUse" gradientTransform="translate(165.48 49.5289) rotate(158.635) scale(156.347 174.769)">
<stop stop-color="#BE9B1D"/>
<stop offset="0.318712" stop-color="#B3710F"/>
<stop offset="0.580257" stop-color="#D1212C"/>
<stop offset="0.794718" stop-color="#7326C0"/>
<stop offset="1" stop-color="#2576B1"/>
</radialGradient>
</defs>
</svg>
